/* XPM */
static char * left_active_xpm[] = {
"1 6 3 1",
"x c #2f343f",
"s c #353b48",
"w c #21252b",
"x",
"x",
"x",
"x",
"s",
"w",}


