/* XPM */
static char * left_active_xpm[] = {
"18 18 4 1",
"x c #2f343f",
"s c #353b48",
"w c #21252b",
"  c None",
"wsxxxx            ",
"wsxxxx            ",
"wsxxxx            ",
"wsxxxx            ",
"wsxxxx            ",
"wsxxxx            ",
"wsxxxx            ",
"wsxxxx            ",
"wsxxxx            ",
"wsxxxx            ",
"wsxxxx            ",
"wsxxxx            ",
"wsxxxxxxxxxxxxxxxx",
"wsxxxxxxxxxxxxxxxx",
"wsxxxxxxxxxxxxxxxx",
"wsxxxxxxxxxxxxxxxx",
"wsssssssssssssssss",
"wwwwwwwwwwwwwqwwww",};
