/* XPM */
static char * left_active_xpm[] = {
"18 18 4 1",
"x c #2f343f",
"s c #353b48",
"w c #21252b",
"  c None",
"            xxxxsw",
"            xxxxsw",
"            xxxxsw",
"            xxxxsw",
"            xxxxsw",
"            xxxxsw",
"            xxxxsw",
"            xxxxsw",
"            xxxxsw",
"            xxxxsw",
"            xxxxsw",
"            xxxxsw",
"xxxxxxxxxxxxxxxxsw",
"xxxxxxxxxxxxxxxxsw",
"xxxxxxxxxxxxxxxxsw",
"xxxxxxxxxxxxxxxxsw",
"sssssssssssssssssw",
"wwwwwwwwwwwwwwwwww",};
