/* XPM */
static char * left_active_xpm[] = {
"6 1 3 1",
"x c #2f343f",
"s c #353b48",
"w c #21252b",
"xxxxsw"};
